<?xml version="1.0" standalone="no"?><!DOCTYPE svg PUBLIC "-//W3C//DTD SVG 1.1//EN" "http://www.w3.org/Graphics/SVG/1.1/DTD/svg11.dtd"><svg t="1579050726251" class="icon" viewBox="0 0 1024 1024" version="1.1" xmlns="http://www.w3.org/2000/svg" p-id="1940" xmlns:xlink="http://www.w3.org/1999/xlink" width="200" height="200"><defs><style type="text/css"></style></defs><path d="M692.547368 393.431579H331.452632c-13.473684 0-24.252632-10.778947-24.252632-24.252632v-134.736842c0-13.473684 10.778947-24.252632 24.252632-24.252631h358.4c13.473684 0 24.252632 10.778947 24.252631 24.252631v134.736842c0 13.473684-10.778947 24.252632-21.557895 24.252632z" fill="#10ABFF" opacity=".4" p-id="1941"></path><path d="M512 35.031579c-13.473684 0-353.010526 5.389474-353.010526 156.294737V835.368421c0 150.905263 339.536842 156.294737 353.010526 156.294737 59.284211 0 353.010526-8.084211 353.010526-156.294737V191.326316c0-148.210526-293.726316-156.294737-353.010526-156.294737z m0 916.210526c-80.842105 0-315.284211-24.252632-315.284211-118.568421V191.326316C196.715789 97.010526 431.157895 72.757895 512 72.757895c107.789474 0 315.284211 24.252632 315.284211 118.568421V835.368421c0 91.621053-204.8 115.873684-315.284211 115.873684z" fill="#10ABFF" p-id="1942"></path><path d="M692.547368 191.326316H331.452632c-24.252632 0-43.115789 18.863158-43.11579 43.115789v134.736842c0 24.252632 18.863158 43.115789 43.11579 43.11579h358.4c24.252632 0 43.115789-18.863158 43.115789-43.11579v-134.736842c0-24.252632-18.863158-43.115789-40.421053-43.115789z m2.694737 177.852631c0 2.694737-2.694737 5.389474-5.389473 5.389474H331.452632c-2.694737 0-5.389474-2.694737-5.389474-5.389474v-134.736842c0-2.694737 2.694737-5.389474 5.389474-5.389473h358.4c2.694737 0 5.389474 2.694737 5.389473 5.389473v134.736842zM401.515789 493.136842h-56.589473c-10.778947 0-18.863158 8.084211-18.863158 18.863158s8.084211 18.863158 18.863158 18.863158h56.589473c10.778947 0 18.863158-8.084211 18.863158-18.863158s-8.084211-18.863158-18.863158-18.863158zM541.642105 493.136842H485.052632c-10.778947 0-18.863158 8.084211-18.863158 18.863158s8.084211 18.863158 18.863158 18.863158h56.589473c10.778947 0 18.863158-8.084211 18.863158-18.863158s-8.084211-18.863158-18.863158-18.863158zM687.157895 493.136842h-56.589474c-10.778947 0-18.863158 8.084211-18.863158 18.863158s8.084211 18.863158 18.863158 18.863158h56.589474c10.778947 0 18.863158-8.084211 18.863158-18.863158s-8.084211-18.863158-18.863158-18.863158zM401.515789 587.452632h-56.589473c-10.778947 0-18.863158 8.084211-18.863158 18.863157s8.084211 18.863158 18.863158 18.863158h56.589473c10.778947 0 18.863158-8.084211 18.863158-18.863158s-8.084211-18.863158-18.863158-18.863157zM541.642105 587.452632H485.052632c-10.778947 0-18.863158 8.084211-18.863158 18.863157s8.084211 18.863158 18.863158 18.863158h56.589473c10.778947 0 18.863158-8.084211 18.863158-18.863158s-8.084211-18.863158-18.863158-18.863157zM687.157895 587.452632h-56.589474c-10.778947 0-18.863158 8.084211-18.863158 18.863157s8.084211 18.863158 18.863158 18.863158h56.589474c10.778947 0 18.863158-8.084211 18.863158-18.863158s-8.084211-18.863158-18.863158-18.863157zM401.515789 684.463158h-56.589473c-10.778947 0-18.863158 8.084211-18.863158 18.863158s8.084211 18.863158 18.863158 18.863158h56.589473c10.778947 0 18.863158-8.084211 18.863158-18.863158s-8.084211-18.863158-18.863158-18.863158zM541.642105 684.463158H485.052632c-10.778947 0-18.863158 8.084211-18.863158 18.863158s8.084211 18.863158 18.863158 18.863158h56.589473c10.778947 0 18.863158-8.084211 18.863158-18.863158s-8.084211-18.863158-18.863158-18.863158zM687.157895 684.463158h-56.589474c-10.778947 0-18.863158 8.084211-18.863158 18.863158s8.084211 18.863158 18.863158 18.863158h56.589474c10.778947 0 18.863158-8.084211 18.863158-18.863158s-8.084211-18.863158-18.863158-18.863158zM401.515789 778.778947h-56.589473c-10.778947 0-18.863158 8.084211-18.863158 18.863158s8.084211 18.863158 18.863158 18.863158h56.589473c10.778947 0 18.863158-8.084211 18.863158-18.863158s-8.084211-18.863158-18.863158-18.863158zM541.642105 778.778947H485.052632c-10.778947 0-18.863158 8.084211-18.863158 18.863158s8.084211 18.863158 18.863158 18.863158h56.589473c10.778947 0 18.863158-8.084211 18.863158-18.863158s-8.084211-18.863158-18.863158-18.863158zM687.157895 778.778947h-56.589474c-10.778947 0-18.863158 8.084211-18.863158 18.863158s8.084211 18.863158 18.863158 18.863158h56.589474c10.778947 0 18.863158-8.084211 18.863158-18.863158s-8.084211-18.863158-18.863158-18.863158z" fill="#10ABFF" p-id="1943"></path></svg>