<?xml version="1.0" standalone="no"?><!DOCTYPE svg PUBLIC "-//W3C//DTD SVG 1.1//EN" "http://www.w3.org/Graphics/SVG/1.1/DTD/svg11.dtd"><svg t="1579050740852" class="icon" viewBox="0 0 1024 1024" version="1.1" xmlns="http://www.w3.org/2000/svg" p-id="903" xmlns:xlink="http://www.w3.org/1999/xlink" width="200" height="200"><defs><style type="text/css"></style></defs><path d="M444.631579 600.926316V164.378947v-5.389473-10.778948c-5.389474-53.894737-48.505263-94.315789-102.4-94.315789S245.221053 97.010526 239.831579 148.210526v447.326316c-59.284211 35.031579-99.705263 107.789474-99.705263 180.547369 0 107.789474 88.926316 196.715789 196.715789 196.715789s196.715789-88.926316 196.71579-196.715789c-2.694737-70.063158-37.726316-140.126316-88.926316-175.157895z" fill="#10ABFF" opacity=".4" p-id="904"></path><path d="M883.873684 520.084211c-2.694737 0-2.694737 0 0 0l-188.631579-390.736843c-13.473684-26.947368-37.726316-43.115789-64.673684-43.115789s-51.2 16.168421-64.673684 43.115789l-45.810526 94.31579c-5.389474 8.084211 0 21.557895 8.08421 24.252631 8.084211 5.389474 21.557895 0 24.252632-8.08421l45.810526-94.31579c5.389474-13.473684 16.168421-21.557895 29.642105-21.557894s24.252632 8.084211 29.642105 21.557894l185.936843 390.736843c13.473684 32.336842 18.863158 59.284211 18.863157 102.4 0 145.515789-105.094737 264.084211-234.442105 264.08421h-24.252631c-10.778947 0-18.863158 5.389474-21.557895 16.168421 0 10.778947 5.389474 18.863158 16.168421 21.557895 8.084211 0 18.863158 2.694737 26.947368 2.694737 150.905263 0 272.168421-134.736842 272.168421-301.810527 5.389474-53.894737 0-83.536842-13.473684-121.263157z" fill="#10ABFF" p-id="905"></path><path d="M649.431579 819.2h2.694737c75.452632-13.473684 132.042105-86.231579 132.042105-172.463158 0-10.778947-8.084211-18.863158-18.863158-18.863158s-18.863158 8.084211-18.863158 18.863158c0 67.368421-43.115789 123.957895-99.705263 134.736842-10.778947 2.694737-16.168421 10.778947-16.168421 21.557895 2.694737 10.778947 10.778947 16.168421 18.863158 16.168421zM463.494737 595.536842V156.294737c0-67.368421-53.894737-121.263158-121.263158-121.263158s-121.263158 53.894737-121.263158 121.263158v428.463158c-61.978947 40.421053-99.705263 107.789474-99.705263 180.547368 0 118.568421 97.010526 215.578947 215.578947 215.578948s215.578947-97.010526 215.578948-215.578948c-2.694737-67.368421-35.031579-129.347368-88.926316-169.768421zM334.147368 943.157895c-97.010526 0-177.852632-80.842105-177.852631-177.852632 0-64.673684 35.031579-123.957895 91.621052-153.6l2.694737-2.694737 2.694737-2.694737s0-2.694737 2.694737-2.694736c0 0 0-2.694737 2.694737-2.694737v-2.694737V156.294737c0-45.810526 37.726316-83.536842 83.536842-83.536842s83.536842 37.726316 83.536842 83.536842v61.978947h-64.673684c-10.778947 0-18.863158 8.084211-18.863158 18.863158s8.084211 18.863158 18.863158 18.863158h64.673684v86.231579h-64.673684c-10.778947 0-18.863158 8.084211-18.863158 18.863158s8.084211 18.863158 18.863158 18.863158h64.673684V458.105263h-64.673684c-10.778947 0-18.863158 8.084211-18.863158 18.863158s8.084211 18.863158 18.863158 18.863158h64.673684v102.4c-2.694737 5.389474 0 13.473684 5.389474 16.168421l2.694737 2.694737c48.505263 32.336842 78.147368 88.926316 78.147368 148.210526 0 99.705263-78.147368 177.852632-177.852632 177.852632z" fill="#10ABFF" p-id="906"></path></svg>