<?xml version="1.0" standalone="no"?><!DOCTYPE svg PUBLIC "-//W3C//DTD SVG 1.1//EN" "http://www.w3.org/Graphics/SVG/1.1/DTD/svg11.dtd"><svg t="1579066490227" class="icon" viewBox="0 0 1024 1024" version="1.1" xmlns="http://www.w3.org/2000/svg" p-id="14111" xmlns:xlink="http://www.w3.org/1999/xlink" width="200" height="200"><defs><style type="text/css"></style></defs><path d="M495.831579 420.378947m-86.231579 0a86.231579 86.231579 0 1 0 172.463158 0 86.231579 86.231579 0 1 0-172.463158 0Z" fill="#10ABFF" opacity=".4" p-id="14112"></path><path d="M821.894737 520.084211L587.452632 80.842105c-16.168421-29.642105-43.115789-45.810526-75.452632-45.810526s-59.284211 16.168421-75.452632 45.810526L202.105263 520.084211c-16.168421 40.421053-26.947368 86.231579-26.947368 129.347368 0 185.936842 150.905263 336.842105 336.842105 336.842105S848.842105 835.368421 848.842105 649.431579c0-51.2-8.084211-86.231579-26.947368-129.347368zM512 951.242105c-164.378947 0-299.115789-134.736842-299.115789-299.115789 0-40.421053 8.084211-78.147368 24.252631-115.873684l234.442105-439.242106c8.084211-16.168421 24.252632-24.252632 43.11579-24.252631s35.031579 10.778947 43.115789 24.252631l234.442106 439.242106c16.168421 35.031579 24.252632 67.368421 24.252631 115.873684-5.389474 164.378947-140.126316 299.115789-304.505263 299.115789z" fill="#10ABFF" p-id="14113"></path><path d="M714.105263 676.378947c-10.778947-2.694737-21.557895 2.694737-24.252631 10.778948-29.642105 83.536842-107.789474 137.431579-194.021053 137.431579-10.778947 0-18.863158 8.084211-18.863158 18.863158s8.084211 18.863158 18.863158 18.863157c105.094737 0 196.715789-64.673684 231.747368-164.378947 0-8.084211-2.694737-18.863158-13.473684-21.557895zM571.284211 495.831579c40.421053-40.421053 40.421053-107.789474 0-150.905263-40.421053-40.421053-110.484211-40.421053-150.905264 0-18.863158 18.863158-32.336842 45.810526-32.336842 75.452631s10.778947 53.894737 32.336842 75.452632c18.863158 18.863158 45.810526 32.336842 75.452632 32.336842s56.589474-10.778947 75.452632-32.336842z m-123.957895-26.947368c-26.947368-26.947368-26.947368-70.063158 0-97.010527 13.473684-13.473684 29.642105-18.863158 48.505263-18.863158s35.031579 8.084211 48.505263 18.863158c26.947368 26.947368 26.947368 70.063158 0 97.010527s-70.063158 26.947368-97.010526 0z" fill="#10ABFF" p-id="14114"></path></svg>