<?xml version="1.0" standalone="no"?><!DOCTYPE svg PUBLIC "-//W3C//DTD SVG 1.1//EN" "http://www.w3.org/Graphics/SVG/1.1/DTD/svg11.dtd"><svg t="1588471680193" class="icon" viewBox="0 0 1024 1024" version="1.1" xmlns="http://www.w3.org/2000/svg" p-id="5151" xmlns:xlink="http://www.w3.org/1999/xlink" width="48" height="48"><defs><style type="text/css"></style></defs><path d="M124.9792 595.6096l470.6816-470.6816 36.1984 36.1984-470.6816 470.6816zM270.0288 740.5056l470.6304-470.6816 36.1984 36.1984-470.6304 470.6816zM414.5152 885.4016L885.1456 414.72l36.1984 36.1984L450.7136 921.6z" fill="#FDB913" p-id="5152"></path><path d="M307.2 102.4h409.6v102.4H307.2zM307.2 819.2h409.6v102.4H307.2zM102.4 307.2h102.4v409.6H102.4zM0 0v307.2h307.2V0z m204.8 204.8H102.4V102.4h102.4zM0 716.8v307.2h307.2v-307.2z m204.8 204.8H102.4v-102.4h102.4zM716.8 0v307.2h307.2V0z m204.8 204.8h-102.4V102.4h102.4zM716.8 716.8v307.2h307.2v-307.2z m204.8 204.8h-102.4v-102.4h102.4zM819.2 307.2h102.4v409.6h-102.4z" fill="#0079F2" p-id="5153"></path></svg>