<?xml version="1.0" standalone="no"?><!DOCTYPE svg PUBLIC "-//W3C//DTD SVG 1.1//EN" "http://www.w3.org/Graphics/SVG/1.1/DTD/svg11.dtd"><svg t="1582201512616" class="icon" viewBox="0 0 1024 1024" version="1.1" xmlns="http://www.w3.org/2000/svg" p-id="13115" xmlns:xlink="http://www.w3.org/1999/xlink" width="64" height="64"><defs><style type="text/css"></style></defs><path d="M711.804878 695.570732c0 14.985366 14.985366 28.721951 33.717073 28.721951h222.282927c18.731707 0 33.717073-12.487805 33.717073-28.721951 0-14.985366-14.985366-28.721951-33.717073-28.721952H745.521951c-18.731707 1.24878-33.717073 13.736585-33.717073 28.721952zM327.180488 279.726829h224.780488c53.697561 0 96.156098-88.663415 113.639024-129.87317 7.492683-16.234146 9.990244-34.965854 6.243902-52.448781-4.995122-28.721951-22.478049-48.702439-79.921951-49.951219C514.497561 43.707317 497.014634 99.902439 440.819512 99.902439c-57.443902 0-84.917073-44.956098-154.84878-53.697561-49.95122-7.492683-69.931707 14.985366-77.424391 43.707317-4.995122 19.980488-3.746341 42.458537 4.995122 61.190244 17.482927 41.209756 61.190244 128.62439 113.639025 128.62439zM990.282927 779.239024H768c-18.731707 0-33.717073 12.487805-33.717073 28.721952 0 14.985366 14.985366 28.721951 33.717073 28.721951h222.282927c18.731707 0 33.717073-12.487805 33.717073-28.721951 0-16.234146-14.985366-28.721951-33.717073-28.721952zM946.57561 899.121951H723.043902c-18.731707 0-33.717073 12.487805-33.717073 28.721951s14.985366 28.721951 33.717073 28.721952h222.282927c18.731707 0 33.717073-12.487805 33.717073-28.721952S964.058537 899.121951 946.57561 899.121951z" p-id="13116" fill="#ffffff"></path><path d="M711.804878 866.653659c-24.97561-4.995122-44.956098-27.473171-44.956098-54.946342s18.731707-49.95122 44.956098-54.946341v-1.248781h-17.482927v-1.24878c-28.721951-6.243902-49.95122-33.717073-49.951219-64.936586 0-32.468293 21.229268-58.692683 49.951219-64.936585v-1.248781h143.609756C791.726829 482.029268 706.809756 325.931707 561.95122 325.931707H324.682927C64.936585 325.931707 0 842.926829 0 842.926829 0 911.609756 54.946341 979.043902 122.380488 979.043902h518.243902c-9.990244-11.239024-17.482927-27.473171-17.482927-44.956097 0-32.468293 22.478049-58.692683 52.448781-64.936585v-1.248781l36.214634-1.24878z m-121.131707-143.609757c16.234146 0 29.970732 13.736585 28.721951 31.219513-1.24878 14.985366-14.985366 26.22439-28.721951 26.22439H474.536585v74.926829c0 16.234146-12.487805 28.721951-28.721951 28.721951-16.234146 0-28.721951-12.487805-28.721951-28.721951v-74.926829H299.707317c-16.234146 0-28.721951-12.487805-28.721951-28.721951 0-16.234146 12.487805-28.721951 28.721951-28.721952h117.385366V686.829268H299.707317c-16.234146 0-28.721951-12.487805-28.721951-28.721951s12.487805-28.721951 28.721951-28.721951h78.673171l-81.170732-144.858537c-7.492683-13.736585-3.746341-31.219512 9.990244-38.712195 13.736585-7.492683 31.219512-3.746341 38.712195 9.990244l97.404878 173.580488h4.995122l97.404878-173.580488c7.492683-13.736585 24.97561-18.731707 38.712195-9.990244 13.736585 7.492683 18.731707 24.97561 9.990244 38.712195l-81.170732 144.858537H586.926829c16.234146 0 28.721951 12.487805 28.721951 28.721951S603.160976 686.829268 586.926829 686.829268h-112.390244v36.214634h116.136586z" p-id="13117" fill="#ffffff"></path></svg>