<?xml version="1.0" standalone="no"?><!DOCTYPE svg PUBLIC "-//W3C//DTD SVG 1.1//EN" "http://www.w3.org/Graphics/SVG/1.1/DTD/svg11.dtd"><svg t="1582201606606" class="icon" viewBox="0 0 1024 1024" version="1.1" xmlns="http://www.w3.org/2000/svg" p-id="15854" xmlns:xlink="http://www.w3.org/1999/xlink" width="64" height="64"><defs><style type="text/css"></style></defs><path d="M742.4 304.64h28.16v-115.2c0-15.552-12.608-28.16-28.16-28.16h-12.8c-15.552 0-28.16 12.608-28.16 28.16v115.2h40.96z m168.96 0h28.16v-115.2c0-15.552-12.608-28.16-28.16-28.16h-12.8c-15.552 0-28.16 12.608-28.16 28.16v115.2h40.96zM560.64 97.28H28.16C12.608 97.28 0 109.888 0 125.44v870.4c0 15.552 12.608 28.16 28.16 28.16h532.48c15.552 0 28.16-12.608 28.16-28.16v-870.4c0-15.552-12.608-28.16-28.16-28.16z m-15.36 870.4a15.36 15.36 0 0 1-15.36 15.36H58.88a15.36 15.36 0 0 1-15.36-15.36V158.72a15.36 15.36 0 0 1 15.36-15.36h471.04a15.36 15.36 0 0 1 15.36 15.36v808.96z" p-id="15855" fill="#ffffff"></path><path d="M499.2 389.12H94.72a12.8 12.8 0 0 0-12.8 12.8v128a12.8 12.8 0 0 0 12.8 12.8H499.2a12.8 12.8 0 0 0 12.8-12.8v-128a12.8 12.8 0 0 0-12.8-12.8z m0 204.8H94.72a12.8 12.8 0 0 0-12.8 12.8v128a12.8 12.8 0 0 0 12.8 12.8H499.2a12.8 12.8 0 0 0 12.8-12.8v-128a12.8 12.8 0 0 0-12.8-12.8z m0 204.8H94.72a12.8 12.8 0 0 0-12.8 12.8v128a12.8 12.8 0 0 0 12.8 12.8H499.2a12.8 12.8 0 0 0 12.8-12.8v-128a12.8 12.8 0 0 0-12.8-12.8zM360.96 64h20.48V20.052C381.44 8.272 372.27 0 360.96 0h-128c-11.31 0-20.48 8.271-20.48 20.052V64h148.48z m650.24 273.92H632.32a12.8 12.8 0 0 0 0 25.6h10.87a247.319 247.319 0 0 0-1.27 24.64c0 102.871 63.183 188.398 146.56 206.382V814.08h-166.4v61.44h166.4v-0.033c0.428 0.007 0.85 0.033 1.28 0.033 33.933 0 61.44-27.507 61.44-61.44h-1.28V595.346c85.271-16.143 150.4-102.738 150.4-207.186 0-8.34-0.46-16.553-1.27-24.64h12.15a12.8 12.8 0 0 0 0-25.6z" p-id="15856" fill="#ffffff"></path></svg>