<?xml version="1.0" standalone="no"?><!DOCTYPE svg PUBLIC "-//W3C//DTD SVG 1.1//EN" "http://www.w3.org/Graphics/SVG/1.1/DTD/svg11.dtd"><svg t="1595900542329" class="icon" viewBox="0 0 1060 1024" version="1.1" xmlns="http://www.w3.org/2000/svg" p-id="3721" xmlns:xlink="http://www.w3.org/1999/xlink" width="33.125" height="32"><defs><style type="text/css"></style></defs><path d="M113.92114583 332.6c0-0.54 840.0009375-0.6 840.0009375-0.6V91.4c0 0.54-840 0.6-840 0.6v240.6zM61.84302083 661.88a58.3790625 58.3790625 0 0 1-7.921875-29.3390625V391.4590625c0-10.8 2.8809375-20.88 7.921875-29.5790625a58.3790625 58.3790625 0 0 1-7.921875-29.3409375V91.4609375C53.92208333 58.6390625 80.62208333 32 113.92208333 32h840.0009375a60 60 0 0 1 60 59.4v241.2a58.696875 58.696875 0 0 1-7.921875 29.52 58.3790625 58.3790625 0 0 1 7.921875 29.3390625v241.0809375c0 10.8-2.8809375 20.88-7.921875 29.58a58.3790625 58.3790625 0 0 1 7.921875 29.34v241.08c0 32.82-26.7 59.46-60 59.46h-840a60 60 0 0 1-60-59.4V691.4a58.696875 58.696875 0 0 1 7.9209375-29.52z m52.078125 270.66c0-0.42 840.0009375-0.54 840.0009375-0.54V691.4c0 0.54-840 0.6-840 0.6v240.6z m0-300c0-0.42 840.0009375-0.54 840.0009375-0.54V391.4c0 0.54-840 0.6-840 0.6v240.6z" p-id="3722" fill="#1296db"></path><path d="M203.92208333 212a30 30 0 1 0 0-60 30 30 0 0 0 0 60z m119.9990625 0a30 30 0 1 0 0-60 30 30 0 0 0 0 60z m210-30a30 30 0 0 1 29.4609375-30h301.08a30 30 0 0 1 0 60H563.38208333a30 30 0 0 1-29.46-30z m-330 330a30 30 0 1 0 0-60 30 30 0 0 0 0 60z m120 0a30 30 0 1 0 0-60 30 30 0 0 0 0 60z m210-30a30 30 0 0 1 29.4609375-30h301.08a30 30 0 0 1 0 60H563.38208333a30 30 0 0 1-29.46-30z m-330 330a30 30 0 1 0 0-60 30 30 0 0 0 0 60z m120 0a30 30 0 1 0 0-60 30 30 0 0 0 0 60z m210-30a30 30 0 0 1 29.4609375-30h301.08a30 30 0 0 1 0 60H563.38208333a30 30 0 0 1-29.46-30z" p-id="3723" fill="#1296db"></path></svg>