<?xml version="1.0" standalone="no"?><!DOCTYPE svg PUBLIC "-//W3C//DTD SVG 1.1//EN" "http://www.w3.org/Graphics/SVG/1.1/DTD/svg11.dtd"><svg t="1588487004769" class="icon" viewBox="0 0 1024 1024" version="1.1" xmlns="http://www.w3.org/2000/svg" p-id="12077" xmlns:xlink="http://www.w3.org/1999/xlink" width="48" height="48"><defs><style type="text/css"></style></defs><path d="M872.8 99.2H154.3C123.8 99.2 99 124 99 154.5V873c0 30.5 24.7 55.3 55.3 55.3h718.5c30.5 0 55.3-24.7 55.3-55.3V154.5c0-30.5-24.7-55.3-55.3-55.3z m-608 731.3c-52.8 0-95.7-42.8-95.7-95.7s42.8-95.7 95.7-95.7 95.7 42.8 95.7 95.7-42.8 95.7-95.7 95.7zM673 768.9H545.4v-63.8H673v63.8z m191.3 0H736.8v-63.8h127.6v63.8z m0-223.2H162.8V163h701.5v382.7z" p-id="12078" fill="#1296db"></path><path d="M194.7 194.9h637.8v318.9H194.7z" p-id="12079" fill="#1296db"></path></svg>