<?xml version="1.0" standalone="no"?><!DOCTYPE svg PUBLIC "-//W3C//DTD SVG 1.1//EN" "http://www.w3.org/Graphics/SVG/1.1/DTD/svg11.dtd"><svg t="1588554177336" class="icon" viewBox="0 0 1024 1024" version="1.1" xmlns="http://www.w3.org/2000/svg" p-id="4256" xmlns:xlink="http://www.w3.org/1999/xlink" width="48" height="48"><defs><style type="text/css"></style></defs><path d="M512 723.2c-19.2 0-38.4-6.4-44.8-19.2L262.4 345.6c-6.4-12.8 6.4-32 25.6-44.8 19.2-6.4 44.8 0 57.6 19.2L512 614.4 678.4 320c6.4-19.2 38.4-25.6 57.6-19.2 19.2 6.4 32 25.6 25.6 44.8L556.8 704c-6.4 12.8-25.6 19.2-44.8 19.2z" p-id="4257" fill="#1296db"></path><path d="M512 1024c-281.6 0-512-230.4-512-512s230.4-512 512-512c108.8 0 211.2 32 300.8 96 12.8 12.8 19.2 32 6.4 44.8s-32 19.2-44.8 6.4C697.6 89.6 608 64 512 64 262.4 64 64 262.4 64 512s198.4 448 448 448 448-198.4 448-448c0-76.8-19.2-153.6-57.6-224-6.4-12.8-6.4-32 12.8-44.8 12.8-6.4 32-6.4 44.8 12.8 38.4 76.8 64 166.4 64 256 0 281.6-230.4 512-512 512z" p-id="4258" fill="#1296db"></path></svg>