<?xml version="1.0" standalone="no"?><!DOCTYPE svg PUBLIC "-//W3C//DTD SVG 1.1//EN" "http://www.w3.org/Graphics/SVG/1.1/DTD/svg11.dtd"><svg t="1595900369879" class="icon" viewBox="0 0 1024 1024" version="1.1" xmlns="http://www.w3.org/2000/svg" p-id="4995" xmlns:xlink="http://www.w3.org/1999/xlink" width="32" height="32"><defs><style type="text/css"></style></defs><path d="M511.7 161.6c-12.1 0-22.1 9.9-22.1 22.1v102.2c0 12.1 9.9 22.1 22.1 22.1 12.1 0 22.1-9.9 22.1-22.1V183.7c0-12.1-9.9-22.1-22.1-22.1zM344.6 222.1c-6.1-10.5-19.6-14.2-30.2-8.1-10.5 6.1-14.2 19.7-8.1 30.2l51.1 88.5c6.1 10.5 19.6 14.2 30.2 8.1 10.5-6.1 14.2-19.6 8.1-30.2l-51.1-88.5zM288.5 401.1L199.9 350c-10.5-6.1-24.1-2.4-30.2 8.1-6.1 10.5-2.4 24.1 8.1 30.2l88.5 51.1c10.5 6.1 24.1 2.4 30.2-8.1 6.1-10.5 2.5-24.1-8-30.2zM707.4 214c-10.5-6.1-24.1-2.4-30.2 8.1l-51.1 88.5c-6.1 10.5-2.4 24.1 8.1 30.2 10.5 6.1 24.1 2.4 30.2-8.1l51.1-88.5c6-10.5 2.4-24.1-8.1-30.2zM725.2 431.3c6.1 10.5 19.6 14.2 30.2 8.1l88.5-51.1c10.5-6.1 14.2-19.7 8.1-30.2s-19.7-14.2-30.2-8.1l-88.5 51.1c-10.5 6.1-14.1 19.7-8.1 30.2z" p-id="4996" fill="#1296db"></path><path d="M821.4 40.2H202.1C90.9 40.2 0 131.1 0 242.3v539.4c0 111.1 90.9 202.1 202.1 202.1h619.3c111.1 0 202.1-90.9 202.1-202.1V242.3c-0.1-111.2-91-202.1-202.1-202.1z m70.3 82.8c24.4 0 44.3 19.8 44.3 44.3s-19.8 44.3-44.3 44.3c-24.5 0-44.3-19.8-44.3-44.3s19.9-44.3 44.3-44.3z m-754 0c24.5 0 44.3 19.8 44.3 44.3s-19.8 44.3-44.3 44.3-44.3-19.8-44.3-44.3 19.9-44.3 44.3-44.3z m0 755.7c-24.5 0-44.3-19.8-44.3-44.3 0-24.5 19.8-44.3 44.3-44.3S182 810 182 834.4c0 24.5-19.8 44.3-44.3 44.3z m419.1 31.2h-96.7S353.6 650.8 355.3 650.8h87.5l68 200.9 66.7-200.9H665L556.8 909.9z m334.9-31.2c-24.5 0-44.3-19.8-44.3-44.3 0-24.5 19.8-44.3 44.3-44.3 24.4 0 44.3 19.8 44.3 44.3 0 24.5-19.8 44.3-44.3 44.3z m44.2-314.5H602.7c0.1-1.7 0.3-3.4 0.3-5.1 0-13.3-2.9-25.8-8-37.2 0.3-4 0.9-11.6 2-18.8 1.6-10.3 85.8-113.5 98.3-133.6 12.5-20.1 0.5-19 0.5-19-50.5 19-142.9 103.2-152.1 109.7-7.5 5.3-21 7.3-25.8 7.9-2.1-0.1-4.1-0.3-6.2-0.3-50.4 0-91.3 40.9-91.3 91.3 0 1.7 0.2 3.4 0.3 5.1H87.5c-0.4-7.5-0.6-15-0.6-22.5 0-234.6 190.2-424.8 424.8-424.8 234.6 0 424.8 190.2 424.8 424.8 0 7.5-0.2 15-0.6 22.5z" p-id="4997" fill="#1296db"></path></svg>