<?xml version="1.0" standalone="no"?><!DOCTYPE svg PUBLIC "-//W3C//DTD SVG 1.1//EN" "http://www.w3.org/Graphics/SVG/1.1/DTD/svg11.dtd"><svg t="1583979369213" class="icon" viewBox="0 0 1821 1024" version="1.1" xmlns="http://www.w3.org/2000/svg" p-id="2336" xmlns:xlink="http://www.w3.org/1999/xlink" width="85.359375" height="48"><defs><style type="text/css"></style></defs><path d="M745.076 217.8h88.146c8.799 0 15.998 7.199 15.998 15.998v27.356c0 8.799 7.199 15.998 15.998 15.998h53.272c8.799 0 15.998-7.199 15.998-15.998v-27.356c0-8.799 7.199-15.998 15.998-15.998h87.986c8.799 0 15.997-7.199 15.998-15.998v-36.474c0-8.799-7.199-15.998-15.998-15.998h-293.394c-8.799 0-15.998 7.199-15.998 15.998v36.474c0 8.799 7.199 15.998 15.998 15.998zM745.076 217.8zM1338.903 433.127h-36.474c-8.799 0-15.997 7.199-15.998 15.998v15.678c0 8.799-7.199 15.998-15.997 15.998h-35.195c-8.799 0-15.997-7.199-15.997-15.998v-36.474c0-8.799-7.199-15.998-15.998-15.998h-62.23c-8.799 0-20.637-5.439-26.556-11.998l-51.672-59.031c-5.919-6.559-17.757-11.998-26.716-11.998h-298.513c-8.799 0-20.477 5.599-26.076 12.478l-72.949 90.546c-5.599 6.879-17.277 12.478-26.076 12.478h-16.157c-8.799 0-15.998 7.199-15.998 15.998v76.308c0 8.799-7.199 15.998-15.998 15.998h-31.835c-8.799 0-15.998-7.199-15.998-15.998v-87.986c0-8.799-7.199-15.998-15.998-15.998h-36.474c-8.799 0-15.998 7.199-15.998 15.998v293.234c0 8.799 7.199 15.997 15.998 15.998h36.474c8.799 0 15.998-7.199 15.998-15.998v-87.986c0-8.799 7.199-15.998 15.998-15.998h31.835c8.799 0 15.998 7.199 15.998 15.998v76.148c0 8.959 7.199 16.157 15.998 16.157h46.393c8.799 0 20.957 5.119 27.036 11.678l80.147 85.427c6.079 6.399 18.077 11.678 26.876 11.678h316.591c8.799 0 20.797-5.439 26.716-11.998l88.466-98.385c5.919-6.559 17.917-11.998 26.716-11.998h35.195c8.799 0 15.997 5.759 15.997 12.638 0 7.039 7.199 12.638 15.998 12.638h36.474c8.799 0 15.997-7.199 15.997-15.998v-293.234c0-8.799-7.199-15.998-15.997-15.998zM1013.674 624.297l-146.537 131.499c-13.918 12.478-18.237 9.119-9.758-7.679l20.637-40.154c8.479-16.637 2.080-37.754-14.398-46.713l-30.235-16.797c-16.317-8.959-28.476-31.675-27.196-50.232l8.959-119.341c1.44-18.557 17.917-33.755 36.474-33.755h116.782c18.717 0 26.716 13.278 17.757 29.755l-55.191 100.784c-9.119 16.477-1.12 29.915 17.597 29.915h56.471c18.717 0 22.556 10.238 8.639 22.716zM1013.674 624.297z" p-id="2337" fill="#2588da"></path></svg>