<?xml version="1.0" standalone="no"?><!DOCTYPE svg PUBLIC "-//W3C//DTD SVG 1.1//EN" "http://www.w3.org/Graphics/SVG/1.1/DTD/svg11.dtd"><svg t="1586850490327" class="icon" viewBox="0 0 1024 1024" version="1.1" xmlns="http://www.w3.org/2000/svg" p-id="2562" xmlns:xlink="http://www.w3.org/1999/xlink" width="48" height="48"><defs><style type="text/css"></style></defs><path d="M548.355 100.749l455 731C1021.598 861.058 1000.523 899 966 899H56c-34.523 0-55.598-37.942-37.355-67.251l455-731c17.22-27.665 57.49-27.665 74.71 0zM544 361.804C544 344.24 529.897 330 512.5 330S481 344.24 481 361.804v245.392C481 624.76 495.103 639 512.5 639s31.5-14.24 31.5-31.804V361.804zM512 671c-25.405 0-46 20.819-46 46.5s20.595 46.5 46 46.5 46-20.819 46-46.5-20.595-46.5-46-46.5z" p-id="2563" fill="#1296db"></path></svg>