<?xml version="1.0" standalone="no"?><!DOCTYPE svg PUBLIC "-//W3C//DTD SVG 1.1//EN" "http://www.w3.org/Graphics/SVG/1.1/DTD/svg11.dtd"><svg t="1595900451160" class="icon" viewBox="0 0 1219 1024" version="1.1" xmlns="http://www.w3.org/2000/svg" p-id="3046" xmlns:xlink="http://www.w3.org/1999/xlink" width="38.09375" height="32"><defs><style type="text/css"></style></defs><path d="M998.184874 255.282913l-154.890756 283.966387c28.683473 0 54.498599 8.605042 77.445378 20.078431l149.154061-272.492997c-25.815126-5.736695-51.630252-14.341737-71.708683-31.551821zM731.428571 582.27451l-111.865546-80.313726c-14.341737 22.946779-34.420168 40.156863-57.366947 54.4986l123.338936 88.918767c11.473389-22.946779 25.815126-45.893557 45.893557-63.103641zM352.806723 524.907563l-154.890757 197.915966c22.946779 11.473389 45.893557 25.815126 63.103642 45.893558l157.759103-200.784314c-25.815126-8.605042-48.761905-22.946779-65.971988-43.02521z" fill="#1296db" p-id="3047"></path><path d="M111.865546 143.417367c0-17.210084 14.341737-31.551821 31.551821-31.551821h783.058823c0-25.815126 8.605042-48.761905 20.078432-68.840336H143.417367C86.05042 40.156863 40.156863 86.05042 40.156863 143.417367v590.879552c20.078431-11.473389 45.893557-20.078431 68.840336-20.078432V143.417367zM1092.840336 286.834734v610.957983c0 17.210084-14.341737 31.551821-31.551821 31.551821H304.044818c-5.736695 25.815126-17.210084 48.761905-34.420168 68.840336H1061.288515c57.366947 0 103.260504-45.893557 103.260505-103.260504V275.361345c-20.078431 8.605042-43.02521 14.341737-71.708684 11.473389 2.868347 2.868347 2.868347 0 0 0zM1092.840336 0c-68.840336 0-126.207283 57.366947-126.207283 126.207283s57.366947 126.207283 126.207283 126.207283 126.207283-57.366947 126.207283-126.207283-57.366947-126.207283-126.207283-126.207283z m0 169.232493c-22.946779 0-43.02521-20.078431-43.02521-43.02521s20.078431-43.02521 43.02521-43.02521 43.02521 20.078431 43.02521 43.02521-20.078431 43.02521-43.02521 43.02521z" fill="#1296db" p-id="3048"></path><path d="M840.42577 811.742297c68.840336 0 126.207283-57.366947 126.207283-126.207283s-57.366947-126.207283-126.207283-126.207283-126.207283 57.366947-126.207283 126.207283 57.366947 126.207283 126.207283 126.207283z m0-169.232493c22.946779 0 43.02521 20.078431 43.02521 43.02521s-20.078431 43.02521-43.02521 43.02521-43.02521-20.078431-43.02521-43.02521 20.078431-43.02521 43.02521-43.02521zM479.014006 312.64986c-68.840336 0-126.207283 57.366947-126.207283 126.207283s57.366947 126.207283 126.207283 126.207283 126.207283-57.366947 126.207283-126.207283-57.366947-126.207283-126.207283-126.207283z m0 166.364146c-22.946779 0-43.02521-20.078431-43.02521-43.02521s20.078431-43.02521 43.02521-43.025211 43.02521 20.078431 43.02521 43.025211-20.078431 43.02521-43.02521 43.02521zM126.207283 774.453782C57.366947 774.453782 0 828.952381 0 897.792717s57.366947 126.207283 126.207283 126.207283 126.207283-57.366947 126.207283-126.207283-57.366947-123.338936-126.207283-123.338935z m0 166.364145c-22.946779 0-43.02521-20.078431-43.02521-43.02521s20.078431-43.02521 43.02521-43.02521 43.02521 20.078431 43.02521 43.02521-20.078431 43.02521-43.02521 43.02521z" fill="#1296db" p-id="3049"></path></svg>