<?xml version="1.0" standalone="no"?><!DOCTYPE svg PUBLIC "-//W3C//DTD SVG 1.1//EN" "http://www.w3.org/Graphics/SVG/1.1/DTD/svg11.dtd"><svg t="1588474782874" class="icon" viewBox="0 0 1024 1024" version="1.1" xmlns="http://www.w3.org/2000/svg" p-id="4578" xmlns:xlink="http://www.w3.org/1999/xlink" width="48" height="48"><defs><style type="text/css"></style></defs><path d="M512 512m-512 0a512 512 0 1 0 1024 0 512 512 0 1 0-1024 0Z" fill="#3F60EA" opacity=".1" p-id="4579"></path><path d="M532.741689 284.603733L781.653333 717.198222a22.755556 22.755556 0 0 1-19.717689 34.110578H262.052978a22.755556 22.755556 0 0 1-19.683556-34.178844L493.340444 284.535467a22.755556 22.755556 0 0 1 39.412623 0.068266z m-26.0096 110.546489a17.066667 17.066667 0 0 0-17.066667 17.066667v188.461511a17.066667 17.066667 0 0 0 17.066667 17.066667h10.376533a17.066667 17.066667 0 0 0 17.066667-17.066667V412.216889a17.066667 17.066667 0 0 0-17.066667-17.066667h-10.376533z m0 244.849778a17.066667 17.066667 0 0 0-17.066667 17.066667v10.387911a17.066667 17.066667 0 0 0 17.066667 17.066666h10.376533a17.066667 17.066667 0 0 0 17.066667-17.066666v-10.376534a17.066667 17.066667 0 0 0-17.066667-17.066666h-10.376533z" fill="#4466F4" p-id="4580"></path></svg>