<?xml version="1.0" standalone="no"?><!DOCTYPE svg PUBLIC "-//W3C//DTD SVG 1.1//EN" "http://www.w3.org/Graphics/SVG/1.1/DTD/svg11.dtd"><svg t="1595900654745" class="icon" viewBox="0 0 1024 1024" version="1.1" xmlns="http://www.w3.org/2000/svg" p-id="5427" xmlns:xlink="http://www.w3.org/1999/xlink" width="32" height="32"><defs><style type="text/css"></style></defs><path d="M744.677278 542.547017V104.289815c0-56.894444-46.095498-102.989942-102.989943-102.989942s-102.989942 46.095498-102.989942 102.989942v438.357192C448.20623 583.243043 390.011913 673.134264 390.011913 772.324578c0 138.986427 112.688995 251.675422 251.675422 251.675422s251.675422-112.688995 251.675423-251.675422c0.09999-99.290304-58.194317-189.181525-148.68548-229.777561zM641.787325 955.206718c-94.390782 0-173.283078-71.792989-182.182208-165.78381-8.899131-93.990821 55.19461-179.282492 147.885558-196.980764V104.289815c0-18.998145 15.398496-34.296651 34.29665-34.29665 18.998145 0 34.296651 15.398496 34.296651 34.29665v488.25232c92.690948 17.698272 156.784689 102.989942 147.885558 196.980763-8.899131 93.890831-87.791427 165.68382-182.182209 165.68382z" fill="#ffffff" p-id="5428"></path><path d="M641.787325 925.509618c-78.692315 0-143.785958-61.394004-148.485499-139.986329-4.599551-78.592325 52.894834-147.185626 131.087199-156.384728 12.89874-3.199688 26.397422 1.299873 34.796601 11.598867 8.39918 10.298994 10.099014 24.397617 4.399571 36.396446-5.699443 11.998828-17.798262 19.598086-30.996973 19.598086v0.499951c-41.095987 4.699541-71.792989 39.896104-70.893077 81.292061 0.899912 41.295967 33.096768 75.192657 74.292745 78.192364 41.195977 2.999707 77.892393-25.997461 84.691729-66.693487 0.299971-18.198223 14.698565-32.996778 32.896788-33.696709 18.198223-0.799922 33.696709 12.79875 35.596523 30.896983h0.999903c-5.499463 77.792403-70.293135 138.286495-148.38551 138.286495zM642.387267 552.646031c-6.599356 0-11.998828-5.399473-11.998828-11.998829v-412.959671c0-6.599356 5.399473-11.998828 11.998828-11.998829s11.998828 5.399473 11.998828 11.998829v412.959671c0 6.599356-5.399473 11.998828-11.998828 11.998829zM435.907431 276.972952H230.027536c-18.998145 0-34.296651-15.398496-34.29665-34.296651 0-18.998145 15.398496-34.296651 34.29665-34.296651h205.879895c18.998145 0 34.296651 15.398496 34.296651 34.296651S454.805585 276.972952 435.907431 276.972952zM435.907431 139.686359H161.334245c-18.998145 0-34.296651-15.398496-34.296651-34.296651 0-18.998145 15.398496-34.296651 34.296651-34.296651h274.573186c18.998145 0 34.296651 15.398496 34.296651 34.296651 0 18.998145-15.398496 34.296651-34.296651 34.296651zM435.907431 551.446148H287.221951c-18.998145 0-34.296651-15.398496-34.296651-34.296651 0-18.998145 15.398496-34.296651 34.296651-34.296651h148.68548c18.998145 0 34.296651 15.398496 34.296651 34.296651 0 18.998145-15.398496 34.296651-34.296651 34.296651zM435.907431 414.259545H172.833122c-18.998145 0-34.296651-15.398496-34.296651-34.296651 0-18.998145 15.398496-34.296651 34.296651-34.29665h263.074309c18.998145 0 34.296651 15.398496 34.296651 34.29665s-15.398496 34.296651-34.296651 34.296651z" fill="#ffffff" p-id="5429"></path></svg>