<?xml version="1.0" standalone="no"?><!DOCTYPE svg PUBLIC "-//W3C//DTD SVG 1.1//EN" "http://www.w3.org/Graphics/SVG/1.1/DTD/svg11.dtd"><svg t="1583817845936" class="icon" viewBox="0 0 1024 1024" version="1.1" xmlns="http://www.w3.org/2000/svg" p-id="1090" data-darkreader-inline-fill="" xmlns:xlink="http://www.w3.org/1999/xlink" width="128" height="128"><defs><style type="text/css"></style></defs><path d="M516.2 510.1m-120.2 0a120.2 120.2 0 1 0 240.4 0 120.2 120.2 0 1 0-240.4 0Z" fill="#B6F5FF" p-id="1091" style="--darkreader-inline-fill:#00525f;" data-darkreader-inline-fill=""></path><path d="M666.1 940.8H366.2c-18.7 0-33.9-15.2-33.9-33.9V720.2c0-11-8.9-19.9-19.9-19.9h-193c-18.7 0-33.9-15.2-33.9-33.9V366.5c0-18.7 15.2-33.9 33.9-33.9h193c11 0 19.9-8.9 19.9-19.9V113.4c0-18.7 15.2-33.9 33.9-33.9h299.9c18.7 0 33.9 15.2 33.9 33.9v199.3c0 11 8.9 19.9 19.9 19.9h193c18.7 0 33.9 15.2 33.9 33.9v299.9c0 18.7-15.2 33.9-33.9 33.9h-193c-11 0-19.9 8.9-19.9 19.9v186.7c0 18.7-15.2 33.9-33.9 33.9zM119.4 346.6c-11 0-19.9 8.9-19.9 19.9v299.9c0 11 8.9 19.9 19.9 19.9h193c18.7 0 33.9 15.2 33.9 33.9v186.7c0 11 8.9 19.9 19.9 19.9h299.9c11 0 19.9-8.9 19.9-19.9V720.2c0-18.7 15.2-33.9 33.9-33.9h193c11 0 19.9-8.9 19.9-19.9V366.5c0-11-8.9-19.9-19.9-19.9h-193c-18.7 0-33.9-15.2-33.9-33.9V113.4c0-11-8.9-19.9-19.9-19.9H366.2c-11 0-19.9 8.9-19.9 19.9v199.3c0 18.7-15.2 33.9-33.9 33.9h-193z" fill="#49A3FE" p-id="1092" style="--darkreader-inline-fill:#01509f;" data-darkreader-inline-fill=""></path><path d="M516.2 689.5c7.6 8.6 18.5 21.5 29.3 35.9 32.8 43.7 37.7 65 37.7 73.7 0 37.3-30.1 67.6-67.1 67.6-37 0-67.1-30.3-67.1-67.6 0-8.8 4.9-29.9 37.6-73.5 10.9-14.5 21.9-27.5 29.6-36.1m0-20.9s-81.1 85.5-81.1 130.5c0 45.1 36.3 81.6 81.1 81.6s81.1-36.5 81.1-81.6c0-45-81.1-130.5-81.1-130.5z" fill="#0F13AE" p-id="1093" style="--darkreader-inline-fill:#0f13ae;" data-darkreader-inline-fill=""></path><path d="M516 849.2c-28.6 0-51.9-23.3-51.9-51.9 0-7.7 3.3-17.6 10-30.1 2.7-5.1 8.6-7.7 14.2-6.4 5.4 1.3 11.5 4.5 18.6 8.1 2 1 4.1 2.1 6.2 3.2 9.6 4.8 12.1 6.1 24.1 4.1 3.3-0.6 6.3-2 8.6-3.2 3.2-1.7 7-2 10.4-0.8 3.4 1.2 6.1 3.8 7.4 7.1 2.9 7 4.3 12.9 4.3 18-0.1 28.7-23.3 51.9-51.9 51.9z m-30.1-74.4c-6.5 12.2-7.8 19-7.8 22.6 0 20.9 17 37.9 37.9 37.9s37.9-17 37.9-37.9c0-2-0.5-5.6-2.7-11.4-2.9 1.5-7 3.3-11.7 4.1-15.8 2.6-21.4 0.3-32.6-5.4-2.2-1.1-4.3-2.2-6.3-3.2-5.9-3-11-5.6-14.7-6.7z m-1-0.3zM473.5 335.5c-14.2-30-6.2-48.2 4.6-63.3 9.8-14.7 12.3-28.6 12.3-28.8l2.6-15.1 9.7 11.9c0.2 0.3 2.9 3.6 5 9.4 4.1-12.1 4.5-24.1 3.5-29.1l-3.4-17.1 14.3 10c37.4 26.2 51.6 81.9 31.1 121.7l-12.4-6.4c15-29 7.5-69.6-15.5-94.1-1.4 13.4-6.3 30.4-17.3 42.9l-17 19.3 4.9-25.2c0.2-0.9 0.3-1.9 0.4-2.8-1.8 3.6-3.9 7.5-6.5 11.3l-0.1 0.2c-8.5 11.9-15.1 24.6-3.4 49.3l-12.8 5.9z" fill="#0F13AE" p-id="1094" style="--darkreader-inline-fill:#0f13ae;" data-darkreader-inline-fill=""></path><path d="M476.3 338.6c-41.8-24-55.9-47.9-49-82.6 2.3-10.9 7.1-20.4 11.7-29.6 5.3-10.5 10.3-20.4 11-31.2l1.5-24 11.7 21c3.6 6.5 5.7 12 6.9 17.6 19.1-26.8 27.3-49.9 24.3-68.8l-1.7-11 10.6 3.2c1.5 0.5 33.4 10.5 52 55.9-0.3-3.8-1.2-7.5-2.6-10.6l-11.1-23.7 21.4 15c10.2 7.1 45.7 46.3 43.6 90.6-1.4 31-20.3 57.1-56.2 77.6l-6.9-12.2c31.5-18 48-40.2 49.2-66.1 1.1-24.7-12.1-48.5-23.6-63.5-0.9 7.6-3.9 14.7-9.5 19.5L551 223l-2.8-10.8c-9.6-36.6-27.9-53.4-39.3-60.7-0.9 23.5-13.5 50-38.4 80.8l-11.4 14.1-1-18.1c-0.2-2.9-0.3-5.5-0.5-7.9-1.9 4.2-3.9 8.3-6 12.4-4.4 8.8-8.6 17-10.5 26.1-4.8 24 0.6 43.7 42.3 67.6l-7.1 12.1zM844 621.8l-4-0.1c-46.1-1.7-74.2-20.2-89.6-35.4-16.9-16.7-22.8-33.1-23-33.8l-0.1-0.2c-20.9-66 4.1-142 5.1-145.2l6.5-19.3 6.8 19.3c7.6 21.8 35.7 40.9 60.5 57.8 15.2 10.4 29.6 20.2 38.4 30 19.4 21.6 25.7 50 18.4 82-5.4 23.6-16.3 40.9-16.8 41.6l-2.2 3.3z m-103.4-74c0.4 1 5.8 14.9 20.1 28.9 19 18.5 44.4 28.8 75.6 30.7 3.2-5.8 9.5-18.6 13-34.2 6.2-27.7 1.1-50.9-15.2-69.2-7.7-8.6-21.4-17.9-35.9-27.8-20.7-14.2-43.6-29.8-57-48.4-6 25.5-14.5 76-0.6 120z" fill="#0F13AE" p-id="1095" style="--darkreader-inline-fill:#0f13ae;" data-darkreader-inline-fill=""></path><path d="M833.3 614.8c0-0.4-2.1-39.2-47.5-79.4-49.3-43.7-52-109.4-52.1-112.2l14-0.4-7 0.2 7-0.2c0 0.6 2.6 62.5 47.3 102.2 50.2 44.5 52.1 87.6 52.2 89.4l-13.9 0.4z" fill="#0F13AE" p-id="1096" style="--darkreader-inline-fill:#6d9ff2;" data-darkreader-inline-fill=""></path><path d="M209.957 216.11l9.899-9.899 49.992 49.992-9.9 9.9zM746.618 755.902l9.9-9.9 49.991 49.993-9.899 9.899zM208.374 794.465l49.992-49.992 9.899 9.9-49.992 49.992zM748.201 257.804l49.992-49.992 9.9 9.9-49.992 49.991z" fill="#0F13AE" p-id="1097" style="--darkreader-inline-fill:#0f13ae;" data-darkreader-inline-fill=""></path><path d="M514.4 554.6c-28.4 0-51.6-23.1-51.6-51.6 0-28.4 23.1-51.6 51.6-51.6 28.4 0 51.6 23.1 51.6 51.6-0.1 28.5-23.2 51.6-51.6 51.6z m0-89.1c-20.7 0-37.6 16.8-37.6 37.6 0 20.7 16.8 37.6 37.6 37.6 20.7 0 37.6-16.8 37.6-37.6-0.1-20.7-16.9-37.6-37.6-37.6z" fill="#0F13AE" p-id="1098" style="--darkreader-inline-fill:#6d9ff2;" data-darkreader-inline-fill=""></path><path d="M201.8 625.4c-3.1 0-6.1-1.1-8.5-3.4-4.5-4.2-5.3-10.7-2-15.8l38.3-59.9-57.9-18.5c-4.3-1.4-7.5-5-8.4-9.4-0.9-4.4 0.7-9 4.1-12L280.3 409c4.6-4 11.1-4.1 15.9-0.4 4.8 3.7 6.2 10.1 3.4 15.5l-36.3 70.8 60.9 17.9c4.6 1.3 7.9 5.1 8.8 9.8 0.8 4.7-1 9.4-4.9 12.2l-118.7 87.9c-2.4 1.9-5 2.7-7.6 2.7z m-23.2-110.1l57.2 18.2c3.7 1.2 6.6 4 7.9 7.7 1.3 3.7 0.9 7.7-1.2 11l-34.9 54.6 109.6-81.2-59.7-17.6c-3.6-1.1-6.5-3.6-7.9-7.1-1.5-3.4-1.3-7.3 0.4-10.6l33.6-65.6-105 90.6z m110.8-95.6z" fill="#0F13AE" p-id="1099" style="--darkreader-inline-fill:#0f13ae;" data-darkreader-inline-fill=""></path><path d="M508.3 495.1h12.5v14h-12.5z" fill="#0F13AE" p-id="1100" style="--darkreader-inline-fill:#6d9ff2;" data-darkreader-inline-fill=""></path></svg>