<?xml version="1.0" standalone="no"?><!DOCTYPE svg PUBLIC "-//W3C//DTD SVG 1.1//EN" "http://www.w3.org/Graphics/SVG/1.1/DTD/svg11.dtd"><svg t="1595900704902" class="icon" viewBox="0 0 1068 1024" version="1.1" xmlns="http://www.w3.org/2000/svg" p-id="6305" xmlns:xlink="http://www.w3.org/1999/xlink" width="33.375" height="32"><defs><style type="text/css"></style></defs><path d="M823.652174 217.661836h-91.516908l-93.990338 215.188406h91.516908L667.826087 615.884058l202.821256-262.183575h-106.357488z" fill="#ffffff" p-id="6306"></path><path d="M939.903382 0H128.618357C56.888889 0 0 56.888889 0 128.618357v576.309179c0 71.729469 56.888889 128.618357 128.618357 128.618358H939.903382c71.729469 0 128.618357-56.888889 128.618357-128.618358V128.618357C1068.521739 56.888889 1011.63285 0 939.903382 0z m56.888889 704.927536c0 32.154589-24.7343 56.888889-56.888889 56.888889H128.618357c-32.154589 0-56.888889-24.7343-56.888888-56.888889V128.618357c0-32.154589 24.7343-56.888889 56.888888-56.888888H939.903382c32.154589 0 56.888889 24.7343 56.888889 56.888888v576.309179zM905.275362 949.797101h-202.821256v-19.787439c0-17.31401-14.84058-32.154589-32.154589-32.15459H378.434783c-17.31401 0-32.154589 14.84058-32.15459 32.15459v19.787439H143.458937c-19.78744 0-37.101449 17.31401-37.101449 37.10145s17.31401 37.101449 37.101449 37.101449h761.816425c19.78744 0 37.101449-17.31401 37.10145-37.101449s-17.31401-37.101449-37.10145-37.10145z" fill="#ffffff" p-id="6307"></path><path d="M482.318841 183.033816h-49.468599c-19.78744 0-34.628019 14.84058-34.62802 34.62802v12.36715h-44.521739c-4.94686 0-9.89372 4.94686-9.89372 9.893719v163.246377h-34.628019v-17.31401c0-22.26087-17.31401-39.574879-39.574879-39.574879H210.241546c-22.26087 0-39.574879 17.31401-39.574879 39.574879V445.217391c0 22.26087 17.31401 39.574879 39.574879 39.57488h56.888889c22.26087 0 39.574879-17.31401 39.574879-39.57488v-17.314009h34.628019v163.246376c0 4.94686 4.94686 9.89372 9.89372 9.89372H395.748792v12.36715c0 19.78744 14.84058 34.628019 34.62802 34.628019h49.468599c19.78744 0 34.628019-14.84058 34.628019-34.628019v-49.468599c0-19.78744-14.84058-34.628019-34.628019-34.628019h-49.468599c-19.78744 0-34.628019 14.84058-34.62802 34.628019v12.36715h-34.628019v-153.352657H395.748792v12.367149c0 19.78744 14.84058 34.628019 34.62802 34.62802h49.468599c19.78744 0 34.628019-14.84058 34.628019-34.62802v-49.468599c0-19.78744-14.84058-34.628019-34.628019-34.628019h-49.468599c-19.78744 0-34.628019 14.84058-34.62802 34.628019v12.36715h-34.628019V244.869565H395.748792v12.36715c0 19.78744 14.84058 34.628019 34.62802 34.628019h49.468599c19.78744 0 34.628019-14.84058 34.628019-34.628019v-49.468599c2.47343-9.89372-14.84058-24.7343-32.154589-24.7343zM281.971014 445.217391c0 7.42029-7.42029 14.84058-14.840579 14.84058H210.241546c-7.42029 0-14.84058-7.42029-14.84058-14.84058v-56.888889c0-7.42029 7.42029-14.84058 14.84058-14.840579h56.888889c7.42029 0 14.84058 7.42029 14.840579 14.840579V445.217391z m136.038648 121.198068c0-7.42029 4.94686-12.36715 12.36715-12.36715h49.468599c7.42029 0 12.36715 4.94686 12.367149 12.36715v49.468599c0 7.42029-4.94686 12.36715-12.367149 12.36715h-49.468599c-7.42029 0-12.36715-4.94686-12.36715-12.36715v-49.468599z m0-173.140097c0-7.42029 4.94686-12.36715 12.36715-12.367149h49.468599c7.42029 0 12.36715 4.94686 12.367149 12.367149v49.468599c0 7.42029-4.94686 12.36715-12.367149 12.36715h-49.468599c-7.42029 0-12.36715-4.94686-12.36715-12.36715v-49.468599z m76.676328-126.144927c0 7.42029-4.94686 12.36715-12.367149 12.36715h-49.468599c-7.42029 0-12.36715-4.94686-12.36715-12.36715v-22.26087-2.47343-24.734299c0-7.42029 4.94686-12.36715 12.36715-12.36715h49.468599c7.42029 0 12.36715 4.94686 12.367149 12.36715v49.468599z" fill="#ffffff" p-id="6308"></path></svg>