<?xml version="1.0" standalone="no"?><!DOCTYPE svg PUBLIC "-//W3C//DTD SVG 1.1//EN" "http://www.w3.org/Graphics/SVG/1.1/DTD/svg11.dtd"><svg t="1579050710855" class="icon" viewBox="0 0 1024 1024" version="1.1" xmlns="http://www.w3.org/2000/svg" p-id="5593" xmlns:xlink="http://www.w3.org/1999/xlink" width="200" height="200"><defs><style type="text/css"></style></defs><path d="M471.578947 452.715789s-266.778947 204.8-167.073684 377.263158c-21.557895-13.473684-97.010526-67.368421-118.568421-97.010526-59.284211-75.452632-56.589474-126.652632-35.031579-177.852632 48.505263-115.873684 194.021053-229.052632 237.136842-301.810526 72.757895-118.568421 13.473684-199.410526 13.473684-199.410526s150.905263 67.368421 158.989474 194.021052c10.778947 123.957895-88.926316 204.8-88.926316 204.8z" fill="#10ABFF" opacity=".4" p-id="5594"></path><path d="M579.368421 234.442105C565.894737 161.684211 509.305263 94.315789 412.294737 37.726316h-2.694737-2.694737-2.694737-2.694737s-2.694737 0-2.694736 2.694737h-2.694737l-2.694737 2.694736-2.694737 2.694737v10.778948s0 2.694737 2.694737 2.694737v2.694736c40.421053 67.368421 24.252632 145.515789-48.505263 234.442106-13.473684 16.168421-32.336842 35.031579-53.894737 59.28421-53.894737 45.810526-102.4 97.010526-129.347368 140.126316-35.031579 51.2-45.810526 110.484211-32.336843 164.378947 16.168421 70.063158 72.757895 134.736842 167.073685 188.631579 2.694737 2.694737 5.389474 2.694737 8.08421 2.694737 2.694737 0 5.389474 0 8.084211-2.694737 2.694737-2.694737 5.389474-2.694737 5.389473-5.389473v-2.694737-2.694737-2.694737-2.694737c0-2.694737 0-2.694737-2.694736-2.694737v-2.694736c-53.894737-78.147368 0-167.073684 35.031578-210.189474l2.694737-2.694737c35.031579-45.810526 70.063158-80.842105 99.705263-113.178947 21.557895-21.557895 40.421053-40.421053 56.589474-61.978948 59.284211-72.757895 80.842105-140.126316 70.063158-204.8z m-145.515789 231.747369c-32.336842 32.336842-67.368421 70.063158-105.094737 118.568421-53.894737 67.368421-72.757895 134.736842-61.978948 196.715789-53.894737-40.421053-88.926316-83.536842-99.705263-132.042105-10.778947-43.115789 0-91.621053 26.947369-134.736842l2.694736-2.694737c24.252632-40.421053 75.452632-91.621053 115.873685-132.042105 24.252632-24.252632 43.115789-43.115789 56.589473-59.284211 75.452632-88.926316 86.231579-164.378947 75.452632-218.273684 45.810526 35.031579 88.926316 80.842105 99.705263 140.126316 10.778947 51.2-8.084211 107.789474-53.894737 167.073684l-56.589473 56.589474zM900.042105 428.463158c-13.473684-67.368421-64.673684-129.347368-153.6-180.547369h-2.694737-2.694736-2.694737-2.694737c-2.694737 0-2.694737 0-2.694737 2.694737h-2.694737l-2.694737 2.694737-2.694736 2.694737v10.778947s0 2.694737 2.694736 2.694737v2.694737c37.726316 59.284211 21.557895 129.347368-43.115789 210.189474-10.778947 13.473684-29.642105 32.336842-48.505263 53.894737-40.421053 40.421053-86.231579 88.926316-110.484211 129.347368-29.642105 45.810526-40.421053 99.705263-29.642105 150.905263 16.168421 64.673684 67.368421 121.263158 153.6 172.463158 2.694737 2.694737 5.389474 2.694737 8.08421 2.694737 2.694737 0 5.389474 0 8.084211-2.694737 2.694737-2.694737 5.389474-2.694737 5.389474-5.389474v-2.694736-2.694737-2.694737-2.694737s0-2.694737-2.694737-2.694737v-2.694737c-45.810526-70.063158 0-148.210526 32.336842-188.631579l2.694737-2.694736c32.336842-43.115789 61.978947-75.452632 91.621052-102.4 18.863158-18.863158 37.726316-37.726316 51.2-53.894737 45.810526-72.757895 64.673684-132.042105 53.894737-191.326316z m-86.231579 156.294737c-13.473684 16.168421-29.642105 32.336842-48.505263 51.2-29.642105 29.642105-61.978947 61.978947-97.010526 107.789473-48.505263 59.284211-67.368421 121.263158-56.589474 175.157895-48.505263-35.031579-78.147368-75.452632-86.231579-115.873684-8.084211-40.421053 0-80.842105 24.252632-121.263158l2.694737-2.694737c21.557895-35.031579 67.368421-83.536842 105.094736-121.263158 21.557895-21.557895 40.421053-40.421053 51.2-53.894737 64.673684-80.842105 78.147368-145.515789 70.063158-194.021052 40.421053 32.336842 78.147368 72.757895 86.231579 121.263158 8.084211 51.2-8.084211 102.4-51.2 153.6z" fill="#10ABFF" p-id="5595"></path></svg>