<?xml version="1.0" standalone="no"?><!DOCTYPE svg PUBLIC "-//W3C//DTD SVG 1.1//EN" "http://www.w3.org/Graphics/SVG/1.1/DTD/svg11.dtd"><svg t="1588483395889" class="icon" viewBox="0 0 1024 1024" version="1.1" xmlns="http://www.w3.org/2000/svg" p-id="8259" xmlns:xlink="http://www.w3.org/1999/xlink" width="48" height="48"><defs><style type="text/css"></style></defs><path d="M512 752.2c-87.8 0-170.3-34.2-232.4-96.3-62.1-62.1-96.3-144.6-96.3-232.4s34.2-170.3 96.3-232.4C341.7 129 424.2 94.8 512 94.8s170.3 34.2 232.4 96.3c62.1 62.1 96.3 144.6 96.3 232.4s-34.2 170.3-96.3 232.4-144.6 96.3-232.4 96.3z m0-637.3c-170.2 0-308.7 138.5-308.7 308.7S341.8 732.2 512 732.2s308.7-138.5 308.7-308.7S682.2 114.9 512 114.9z" fill="#3983FD" p-id="8260"></path><path d="M512 473.5m-161.4 0a161.4 161.4 0 1 0 322.8 0 161.4 161.4 0 1 0-322.8 0Z" fill="#83FCE5" p-id="8261"></path><path d="M512 322.1c40.4 0 78.5 15.7 107.1 44.3 28.6 28.6 44.3 66.6 44.3 107.1s-15.7 78.5-44.3 107.1-66.6 44.3-107.1 44.3-78.5-15.7-107.1-44.3c-28.6-28.6-44.3-66.6-44.3-107.1s15.7-78.5 44.3-107.1c28.6-28.5 66.7-44.3 107.1-44.3m0-10c-89.1 0-161.4 72.3-161.4 161.4S422.9 634.9 512 634.9s161.4-72.3 161.4-161.4S601.1 312.1 512 312.1zM636.516 724.252l17.896-8.928 99.993 200.435-17.896 8.928zM263.012 915.793l103.966-208.399 17.896 8.928-103.966 208.399z" fill="#3983FD" p-id="8262"></path><path d="M825.5 930.2H193.3c-5.5 0-10-4.5-10-10s4.5-10 10-10h632.2c5.5 0 10 4.5 10 10s-4.5 10-10 10z" fill="#3983FD" p-id="8263"></path><path d="M513 237.2m-28.5 0a28.5 28.5 0 1 0 57 0 28.5 28.5 0 1 0-57 0Z" fill="#83FCE5" p-id="8264"></path><path d="M513 218.7c10.2 0 18.5 8.3 18.5 18.5s-8.3 18.5-18.5 18.5-18.5-8.3-18.5-18.5 8.3-18.5 18.5-18.5m0-10c-15.7 0-28.5 12.8-28.5 28.5s12.8 28.5 28.5 28.5 28.5-12.8 28.5-28.5-12.8-28.5-28.5-28.5z" fill="#3983FD" p-id="8265"></path><path d="M434 413.5m-60 0a60 60 0 1 0 120 0 60 60 0 1 0-120 0Z" fill="#FFFFFF" p-id="8266"></path><path d="M434 363.5c27.6 0 50 22.4 50 50s-22.4 50-50 50-50-22.4-50-50 22.4-50 50-50m0-10c-33.1 0-60 26.9-60 60s26.9 60 60 60 60-26.9 60-60-26.9-60-60-60z" fill="#3983FD" p-id="8267"></path></svg>