<?xml version="1.0" standalone="no"?><!DOCTYPE svg PUBLIC "-//W3C//DTD SVG 1.1//EN" "http://www.w3.org/Graphics/SVG/1.1/DTD/svg11.dtd"><svg t="1588483302379" class="icon" viewBox="0 0 1024 1024" version="1.1" xmlns="http://www.w3.org/2000/svg" p-id="5784" xmlns:xlink="http://www.w3.org/1999/xlink" width="48" height="48"><defs><style type="text/css"></style></defs><path d="M864 876.8v-486.4h-140.8v486.4H665.6V576H524.8v300.8h-64V512H320v364.8h-64V678.4H115.2v198.4H76.8v12.8h819.2v-12.8z m-128-473.6h115.2v473.6h-115.2zM537.6 588.8h115.2v288h-115.2z m-204.8-64h115.2v352h-115.2zM128 691.2h115.2v185.6h-115.2z" p-id="5785" fill="#1296db"></path><path d="M185.6 537.6a70.4 70.4 0 0 0 58.624-109.312l95.616-78.592a70.272 70.272 0 0 0 116.992-25.6l71.68 31.36A67.712 67.712 0 0 0 524.8 377.6a70.4 70.4 0 1 0 124.416-44.8L755.2 226.816a70.528 70.528 0 1 0-8.96-8.96L640 323.584a70.272 70.272 0 0 0-106.624 19.968l-73.728-32.128a72.832 72.832 0 0 0 1.152-10.624 70.4 70.4 0 1 0-129.024 38.4l-95.616 78.592A70.4 70.4 0 1 0 185.6 537.6z m614.4-422.4a57.6 57.6 0 1 1-57.6 57.6A57.728 57.728 0 0 1 800 115.2z m-204.8 204.8a57.6 57.6 0 1 1-57.6 57.6 57.728 57.728 0 0 1 57.6-57.6z m-204.8-76.8a57.6 57.6 0 1 1-57.6 57.6 57.728 57.728 0 0 1 57.6-57.6z m-204.8 166.4a57.6 57.6 0 1 1-57.6 57.6 57.728 57.728 0 0 1 57.6-57.6z" p-id="5786" fill="#1296db"></path></svg>