<?xml version="1.0" standalone="no"?><!DOCTYPE svg PUBLIC "-//W3C//DTD SVG 1.1//EN" "http://www.w3.org/Graphics/SVG/1.1/DTD/svg11.dtd"><svg t="1582201619950" class="icon" viewBox="0 0 1092 1024" version="1.1" xmlns="http://www.w3.org/2000/svg" p-id="16037" xmlns:xlink="http://www.w3.org/1999/xlink" width="68.25" height="64"><defs><style type="text/css"></style></defs><path d="M1006.933 921.6H887.467V546.133c0-187.733-153.6-341.333-341.334-341.333S204.8 358.4 204.8 546.133V921.6H85.333c-10.24 0-17.066 6.827-17.066 17.067v68.266c0 10.24 6.826 17.067 17.066 17.067h921.6c10.24 0 17.067-6.827 17.067-17.067v-68.266c0-10.24-6.827-17.067-17.067-17.067zM785.067 819.2H307.2V546.133C307.2 414.72 414.72 307.2 546.133 307.2s238.934 107.52 238.934 238.933V819.2zM512 0h68.267c10.24 0 17.066 6.827 17.066 17.067v102.4c0 10.24-6.826 17.066-17.066 17.066H512c-10.24 0-17.067-6.826-17.067-17.066v-102.4C494.933 6.827 501.76 0 512 0zM244.053 90.453l59.734-34.133c8.533-5.12 18.773-1.707 23.893 6.827l51.2 88.746c5.12 8.534 1.707 18.774-6.827 23.894L312.32 209.92c-8.533 5.12-18.773 1.707-23.893-6.827l-51.2-88.746c-5.12-8.534-1.707-18.774 6.826-23.894zM56.32 302.08l34.133-59.733c5.12-8.534 15.36-10.24 23.894-6.827l88.746 51.2c8.534 5.12 10.24 15.36 6.827 23.893l-34.133 59.734c-5.12 8.533-15.36 10.24-23.894 6.826l-88.746-51.2c-8.534-5.12-11.947-15.36-6.827-23.893z m834.56-13.653l88.747-51.2c8.533-5.12 18.773-1.707 23.893 6.826l34.133 59.734c5.12 8.533 1.707 18.773-6.826 23.893l-88.747 51.2c-8.533 5.12-18.773 1.707-23.893-6.827l-34.134-59.733c-5.12-8.533-1.706-18.773 6.827-23.893z m-175.787-138.24l51.2-88.747c5.12-8.533 15.36-10.24 23.894-6.827l59.733 34.134c8.533 5.12 10.24 15.36 6.827 23.893l-51.2 88.747c-5.12 8.533-15.36 10.24-23.894 6.826L721.92 174.08c-8.533-5.12-11.947-15.36-6.827-23.893z" p-id="16038" fill="#ffffff"></path><path d="M680.96 494.933H573.44l20.48-141.653c0-5.12-3.413-8.533-6.827-10.24h-1.706c-1.707 0-5.12 1.707-6.827 3.413L404.48 549.547c-3.413 3.413-1.707 8.533 1.707 11.946 1.706 1.707 3.413 1.707 5.12 1.707h109.226l-20.48 141.653c0 5.12 3.414 8.534 6.827 10.24h1.707c1.706 0 5.12-1.706 6.826-3.413l174.08-203.093c3.414-3.414 1.707-8.534-1.706-11.947-3.414-1.707-5.12-1.707-6.827-1.707z" p-id="16039" fill="#ffffff"></path></svg>