<?xml version="1.0" standalone="no"?><!DOCTYPE svg PUBLIC "-//W3C//DTD SVG 1.1//EN" "http://www.w3.org/Graphics/SVG/1.1/DTD/svg11.dtd"><svg t="1581997255163" class="icon" viewBox="0 0 1024 1024" version="1.1" xmlns="http://www.w3.org/2000/svg" p-id="7274" xmlns:xlink="http://www.w3.org/1999/xlink" width="200" height="200"><defs><style type="text/css"></style></defs><path d="M327.516312 634.92445c-6.596893 21.342888-10.547973 42.650498-11.85324 61.453405h-1.305267c-1.305268-18.802908-5.256348-38.875805-10.547973-60.218693l-115.957143-428.974403H63.993385l184.466049 605.855789h129.115651L563.381679 207.184759h-119.908223L327.516312 634.92445z m602.18693-91.580391c-19.7554-28.856995-56.655665-56.444-109.360251-81.526303-46.107693-22.5776-73.800531-40.145795-85.653771-53.939298-11.85324-12.55879-17.109588-27.587005-17.109587-42.650498 0-20.072898 7.90216-35.13639 25.047025-46.42519s39.546078-17.568195 67.203638-17.568195c48.753505 0 90.910118 13.793503 126.469838 41.415785V220.978262c-35.55972-15.063493-79.056878-22.5776-131.761463-22.577601-63.252558 0-113.311331 15.063493-151.516864 46.425191-38.205533 31.361698-56.655665 75.246908-56.655665 131.690908 0 76.516898 42.156613 135.465601 125.164571 175.611397 52.704585 25.082303 85.653771 45.1552 98.812278 58.948702 13.193785 13.793503 18.450133 30.091708 18.450133 46.425191 0 18.802908-7.90216 35.101113-23.706481 46.42519-15.80432 12.55879-39.5108 18.802908-69.84945 18.802908-55.350398 0-104.103903-20.072898-147.565784-60.218693v129.186206c39.546078 22.5776 89.604851 33.8664 151.516864 33.8664 67.203638 0 118.602956-15.063493 155.503221-46.42519 36.900265-30.091708 55.350398-75.246908 55.350398-132.960899-0.035278-40.110518-10.58325-75.211631-30.33865-102.833913z m0 0" fill="#1296db" p-id="7275"></path></svg>