<?xml version="1.0" standalone="no"?><!DOCTYPE svg PUBLIC "-//W3C//DTD SVG 1.1//EN" "http://www.w3.org/Graphics/SVG/1.1/DTD/svg11.dtd"><svg t="1596021669860" class="icon" viewBox="0 0 1024 1024" version="1.1" xmlns="http://www.w3.org/2000/svg" p-id="3363" xmlns:xlink="http://www.w3.org/1999/xlink" width="32" height="32"><defs><style type="text/css"></style></defs><path d="M842.32 128c32.78 0 60.26 24.767 63.656 57.37l52.64 505.325A64.263 64.263 0 0 1 960 704v128c0 35.346-28.654 64-64 64H128c-35.346 0-64-28.654-64-64V704c0-4.566 0.478-9.02 1.387-13.315l52.637-505.316C121.42 152.767 148.901 128 181.68 128h660.64zM896 704H128v128h768V704z m-53.68-512H181.68l-46.668 448h753.975L842.32 192z" fill="#1296db" p-id="3364"></path><path d="M704 736m32 0l96 0q32 0 32 32l0 0q0 32-32 32l-96 0q-32 0-32-32l0 0q0-32 32-32Z" fill="#1296db" p-id="3365"></path><path d="M596 736m32 0l20 0q32 0 32 32l0 0q0 32-32 32l-20 0q-32 0-32-32l0 0q0-32 32-32Z" fill="#1296db" p-id="3366"></path><path d="M488 736m32 0l20 0q32 0 32 32l0 0q0 32-32 32l-20 0q-32 0-32-32l0 0q0-32 32-32Z" fill="#1296db" p-id="3367"></path></svg>