<?xml version="1.0" standalone="no"?><!DOCTYPE svg PUBLIC "-//W3C//DTD SVG 1.1//EN" "http://www.w3.org/Graphics/SVG/1.1/DTD/svg11.dtd"><svg t="1582791198932" class="icon" viewBox="0 0 1024 1024" version="1.1" xmlns="http://www.w3.org/2000/svg" p-id="3642" xmlns:xlink="http://www.w3.org/1999/xlink" width="48" height="48"><defs><style type="text/css"></style></defs><path d="M824.938148 0.001821h-91.460433a15.891768 15.891768 0 0 0-15.560689 12.139545A83.073111 83.073111 0 0 1 637.327003 76.122284h-250.654006A83.017931 83.017931 0 0 1 306.248514 12.141366a15.946947 15.946947 0 0 0-15.726229-12.139545H199.144622a83.017931 83.017931 0 0 0-82.769622 82.769622v858.458935a83.017931 83.017931 0 0 0 82.769622 82.769622H824.938148a83.017931 83.017931 0 0 0 82.769622-82.769622V82.771443a83.017931 83.017931 0 0 0-82.769622-82.769622zM359.083123 302.855869c0.551797-2.1796 1.158775-4.38679 1.600212-6.593979A100.89617 100.89617 0 0 1 375.223199 257.884375l71.264645 72.423419 37.549819-38.074026-73.140757-72.533779L452.474847 206.34649h24.527398c15.588279 2.758987 30.7903 7.200957 44.143798 15.864177 38.791363 24.996426 56.476472 66.739906 47.564943 112.180429a9.628866 9.628866 0 0 0 3.062476 9.932354q39.039672 38.956902 77.748266 78.162114a52.944968 52.944968 0 0 1-75.044458 74.685789c-25.437864-25.437864-50.986087-50.792958-76.148053-76.479131a12.691342 12.691342 0 0 0-13.270729-4.30402c-49.109976 10.456562-100.206423-18.347266-117.698403-63.67743-3.697043-9.628866-5.517975-19.947479-8.276962-29.935013z m268.504655 527.904652a44.999085 44.999085 0 0 1-44.861136 44.861136h-268.946093a44.999085 44.999085 0 0 1-44.861135-44.861136 44.999085 44.999085 0 0 1 44.861135-44.861135h268.946093a44.971495 44.971495 0 0 1 44.861136 44.861135z m156.351817-188.35607a44.999085 44.999085 0 0 1-44.861136 44.861135H313.780549a44.999085 44.999085 0 0 1-44.861135-44.861135 44.999085 44.999085 0 0 1 44.861135-44.861136h425.29791a44.999085 44.999085 0 0 1 44.861136 44.861136z" fill="#1195db" p-id="3643"></path></svg>