<?xml version="1.0" standalone="no"?><!DOCTYPE svg PUBLIC "-//W3C//DTD SVG 1.1//EN" "http://www.w3.org/Graphics/SVG/1.1/DTD/svg11.dtd"><svg t="1592189186655" class="icon" viewBox="0 0 1024 1024" version="1.1" xmlns="http://www.w3.org/2000/svg" p-id="2674" xmlns:xlink="http://www.w3.org/1999/xlink" width="48" height="48"><defs><style type="text/css"></style></defs><path d="M170.67 85.33v853.33h682.67V85.33H170.67z m597.33 768H256V682.67h512v170.66z m0-256H256V170.67h512v426.66z" p-id="2675" fill="#1296db"></path><path d="M386.1 359.31h66.81c3.31 0 5.8 2.73 5.15 5.65l-41.91 189.61c-0.02 0.05 0.03 0.09 0.07 0.09 0.02 0 0.04-0.01 0.05-0.02l222.98-252.11c1.74-1.97 0.18-4.88-2.62-4.88h-84.36c-3.31 0-5.38-3.22-3.72-5.8l47.83-74.57c1.12-1.75-0.28-3.94-2.53-3.94H473.5c-5.12 0-9.81 2.59-12.14 6.7l-77.13 136.54c-0.71 1.25 0.31 2.73 1.87 2.73zM512 725.33h85.33v85.33H512zM640 725.33h85.33v85.33H640z" p-id="2676" fill="#1296db"></path></svg>