<?xml version="1.0" standalone="no"?><!DOCTYPE svg PUBLIC "-//W3C//DTD SVG 1.1//EN" "http://www.w3.org/Graphics/SVG/1.1/DTD/svg11.dtd"><svg t="1595900329898" class="icon" viewBox="0 0 1024 1024" version="1.1" xmlns="http://www.w3.org/2000/svg" p-id="4770" xmlns:xlink="http://www.w3.org/1999/xlink" width="32" height="32"><defs><style type="text/css"></style></defs><path d="M185.500444 215.822222v450.517334c0 35.356444 60.785778 99.640889 166.272 164.522666 43.648 26.837333 91.235556 51.84 137.799112 73.386667 9.770667 4.522667 19.143111 8.718222 27.776 12.472889 8.817778-3.84 18.375111-8.120889 28.373333-12.743111 47.004444-21.745778 95.075556-46.933333 139.150222-73.912889 106.339556-65.095111 167.850667-129.479111 167.850667-163.726222V322.531556 210.631111L517.475556 103.950222l-331.975112 99.470222v12.401778zM105.671111 123.349333L517.361778 0l415.104 123.392A28.472889 28.472889 0 0 1 952.888889 150.641778v515.697778C952.888889 852.110222 523.434667 1024 517.361778 1024 511.288889 1024 85.333333 853.930667 85.333333 666.339556V150.584889c0-12.544 8.277333-23.608889 20.352-27.235556zM407.182222 650.069333l65.464889-201.614222 74.353778 276.963556 93.937778-233.827556 38.286222 42.481778h173.511111v-71.111111h-141.866667l-93.425777-103.665778-57.002667 141.909333-81.322667-302.933333-102.954666 317.056-80.199112-83.271111-110.449777-0.782222v71.111111l80.213333 0.782222 141.454222 146.901333z" p-id="4771" fill="#1296db"></path></svg>