<?xml version="1.0" standalone="no"?><!DOCTYPE svg PUBLIC "-//W3C//DTD SVG 1.1//EN" "http://www.w3.org/Graphics/SVG/1.1/DTD/svg11.dtd"><svg t="1595900473168" class="icon" viewBox="0 0 1024 1024" version="1.1" xmlns="http://www.w3.org/2000/svg" p-id="3250" xmlns:xlink="http://www.w3.org/1999/xlink" width="32" height="32"><defs><style type="text/css"></style></defs><path d="M446.176 785.568a16.032 16.032 0 0 1-15.568-19.76l48.992-203.424h-130.832a16 16 0 0 1-12.672-25.776l222.624-288.8a16.032 16.032 0 0 1 28.24 13.52l-48.992 203.44H668.8a16 16 0 0 1 12.672 25.776L458.848 779.328a16 16 0 0 1-12.672 6.24zM381.312 530.4h118.608a16 16 0 0 1 15.568 19.76l-36.192 150.256 156.96-203.648h-118.608a16 16 0 0 1-15.568-19.76l36.192-150.272-156.96 203.664z" fill="#1296db" p-id="3251"></path><path d="M988.784 849.568h-960a16 16 0 0 1-16-16v-640a16 16 0 0 1 16-16h960a16 16 0 0 1 16 16v640a16 16 0 0 1-16 16z m-944-32h928v-608h-928v608z" fill="#1296db" p-id="3252"></path><path d="M308.784 913.568h-128a16 16 0 0 1-16-16v-64a16 16 0 0 1 16-16h128a16 16 0 0 1 16 16v64a16 16 0 0 1-16 16z m-112-32h96v-32h-96v32zM308.784 209.568h-128a16 16 0 0 1-16-16v-32a16 16 0 0 1 16-16h128a16 16 0 0 1 16 16v32a16 16 0 0 1-16 16z m-112-32h96-96zM836.784 209.568h-128a16 16 0 0 1-16-16v-32a16 16 0 0 1 16-16h128a16 16 0 0 1 16 16v32a16 16 0 0 1-16 16z m-112-32h96-96zM836.784 913.568h-128a16 16 0 0 1-16-16v-64a16 16 0 0 1 16-16h128a16 16 0 0 1 16 16v64a16 16 0 0 1-16 16z m-112-32h96v-32h-96v32zM572.784 913.568h-128a16 16 0 0 1-16-16v-64a16 16 0 0 1 16-16h128a16 16 0 0 1 16 16v64a16 16 0 0 1-16 16z m-112-32h96v-32h-96v32z" fill="#1296db" p-id="3253"></path></svg>